<?xml version="1.0" encoding="utf-8"?>
<!-- Generator: Adobe Illustrator 18.1.1, SVG Export Plug-In . SVG Version: 6.00 Build 0)  -->
<svg version="1.1" id="Layer_1" xmlns="http://www.w3.org/2000/svg" xmlns:xlink="http://www.w3.org/1999/xlink" x="0px" y="0px"
	 viewBox="0 0 384.5 241.3" enable-background="new 0 0 384.5 241.3" xml:space="preserve">
<g>
	<rect x="35" y="136.9" fill="none" width="116.3" height="73.4"/>
	<text transform="matrix(1 0 0 1 35.003 145.6279)"><tspan x="0" y="0" fill="#0F0FDB" font-family="'LiberationMono-Bold'" font-size="11.9723" letter-spacing="1">Joshua Lynn</tspan><tspan x="0" y="16.6" font-family="'LiberationMono-Bold'" font-size="10.1304" letter-spacing="1">Director</tspan><tspan x="0" y="31.3" font-family="'LiberationMono'" font-size="9.2095">021 057 4689</tspan><tspan x="0" y="46" font-family="'LiberationMono'" font-size="9.2095">joshua@thinkt.com</tspan></text>
</g>
<rect x="132.9" y="26" fill="none" width="217" height="63.7"/>
<text transform="matrix(1 0 0 1 308.2119 33.3633)"><tspan x="0" y="0" fill="#0F0FDB" font-family="'LiberationMono-Bold'" font-size="10.1304" letter-spacing="1">Studio</tspan><tspan x="-103.3" y="12.9" font-family="'LiberationMono'" font-size="8.2885">Randolph St, Eden Tce, Ak</tspan><tspan x="-21.6" y="25.8" font-family="'LiberationMono'" font-size="8.2885">09 358 1447</tspan><tspan x="-39.1" y="38.7" font-family="'LiberationMono'" font-size="8.2885">www.thinkt.com</tspan></text>
<path fill="#0F0FDB" d="M338.7,231.8v-10.3h11v10.3H338.7z"/>
<path fill="#0F0FDB" d="M35.3,19.5V9.2h97v10.3H35.3z"/>
<path d="M154.1,231.7v-10.3h81.5v10.3H154.1z"/>
<line fill="none" stroke="#000000" stroke-miterlimit="10" stroke-dasharray="7,5" x1="350.7" y1="9.8" x2="135.7" y2="9.8"/>
<polyline fill="none" stroke="#000000" stroke-miterlimit="10" points="55.7,220.8 35.2,220.8 35.2,204.3 "/>
</svg>
