<?xml version="1.0" encoding="utf-8"?>
<!-- Generator: Adobe Illustrator 18.1.1, SVG Export Plug-In . SVG Version: 6.00 Build 0)  -->
<svg version="1.1" id="Layer_1" xmlns="http://www.w3.org/2000/svg" xmlns:xlink="http://www.w3.org/1999/xlink" x="0px" y="0px"
	 viewBox="0 0 384.5 241.3" enable-background="new 0 0 384.5 241.3" xml:space="preserve">
<polyline fill="none" stroke="#000000" stroke-miterlimit="10" points="327.7,18.8 347.2,18.8 347.2,36.3 "/>
<path d="M33.7,231.8v-10.3h11v10.3H33.7z"/>
<line fill="none" stroke="#000000" stroke-miterlimit="10" x1="349.2" y1="231.3" x2="349.2" y2="157.3"/>
<path fill="#0F0FDB" d="M33.7,19.5V9.2h97v10.3H33.7z"/>
<path d="M149.6,231.7v-10.3h200.3v10.3H149.6z"/>
<path stroke="#FFFFFF" stroke-width="0.742" stroke-miterlimit="10" d="M107.6,105.6v-6.9h5.4v-5l8.1-4.7v9.6h6.5v6.9h-6.5v15.7h6.5
	v6.9h-7.7l-6.9-4v-18.7H107.6z"/>
<path stroke="#FFFFFF" stroke-width="0.742" stroke-miterlimit="10" d="M141.9,128.3h-8.1V85.1h8.1v15.7l4.2-2.4h7.7l6.9,4v25.9
	h-8.1v-22.9h-10.7V128.3z"/>
<path stroke="#FFFFFF" stroke-width="0.742" stroke-miterlimit="10" d="M212.6,102.4v25.9h-8.1v-22.9h-10.1v22.9h-8.1V98.4h6.7
	l1.4,2.4l4.2-2.4h7.2L212.6,102.4z"/>
<path stroke="#FFFFFF" stroke-width="0.742" stroke-miterlimit="10" d="M226.9,85.2v25.5h0.1l9.2-11.9h9.3L234.9,112l12.4,16.4h-9.4
	l-7.7-10.5l-3.3,4.1v6.4h-8.1V85.2H226.9z"/>
<path fill="#0F0FDB" stroke="#FFFFFF" stroke-width="0.742" stroke-miterlimit="10" d="M251,105.6v-6.9h5.4v-5l8.1-4.7v9.6h6.5v6.9
	h-6.5v15.7h6.5v6.9h-7.7l-6.9-4v-18.7H251z"/>
<rect x="214.4" y="111" fill="#FFFFFF" stroke="#FFFFFF" stroke-width="0.742" stroke-miterlimit="10" width="32.3" height="27.5"/>
<path fill="#0F0FDB" stroke="#FFFFFF" stroke-width="0.742" stroke-miterlimit="10" d="M166.9,99.4v-8.1h8.7v8.1H166.9z"/>
<line fill="none" stroke="#000000" stroke-miterlimit="10" x1="248.2" y1="97.3" x2="248.2" y2="175.3"/>
<polyline fill="none" stroke="#000000" stroke-width="3" stroke-miterlimit="10" points="181.7,77.8 227.5,77.8 249,99 "/>
<g>
	<g>
		<line fill="none" stroke="#0F0FDB" stroke-miterlimit="10" x1="121.7" y1="136.8" x2="125.7" y2="136.8"/>
		<line fill="none" stroke="#0F0FDB" stroke-miterlimit="10" stroke-dasharray="7,4" x1="129.7" y1="136.8" x2="175.7" y2="136.8"/>
		<polyline fill="none" stroke="#0F0FDB" stroke-miterlimit="10" points="177.7,136.8 181.2,136.8 181.2,132.3 		"/>
		<line fill="none" stroke="#0F0FDB" stroke-miterlimit="10" stroke-dasharray="7,4" x1="181.2" y1="128.3" x2="181.2" y2="87.3"/>
		<line fill="none" stroke="#0F0FDB" stroke-miterlimit="10" x1="181.2" y1="85.3" x2="181.2" y2="81.3"/>
	</g>
</g>
<line fill="none" stroke="#0F0FDB" stroke-width="2.2259" stroke-miterlimit="10" x1="102.4" y1="145.6" x2="119.8" y2="136.3"/>
<rect x="251.2" y="136.6" fill="none" width="65.2" height="58.3"/>
<text transform="matrix(1 0 0 1 251.1647 141.8691)"><tspan x="0" y="0" font-family="'LiberationMono'" font-size="7.2423">a </tspan><tspan x="0" y="11.6" font-family="'LiberationMono'" font-size="7.2423">creative </tspan><tspan x="0" y="23.2" font-family="'LiberationMono'" font-size="7.2423">audio </tspan><tspan x="0" y="34.8" font-family="'LiberationMono'" font-size="7.2423">production </tspan><tspan x="0" y="46.4" font-family="'LiberationMono'" font-size="7.2423">facility</tspan></text>
<polygon points="310.3,48.3 318.6,48.3 308.8,61.3 300.8,61.3 "/>
<rect x="182.5" y="179.7" fill="#0F0FDB" width="25.5" height="8.1"/>
<polygon points="52.5,115.3 60.7,115.3 50.9,128.3 42.9,128.3 "/>
<polyline fill="none" stroke="#000000" stroke-miterlimit="10" stroke-dasharray="10.3718,6.4823" points="32.7,187.8 100.2,187.8 
	100.2,232.3 "/>
</svg>
