<?xml version="1.0" encoding="utf-8"?>
<!-- Generator: Adobe Illustrator 16.0.0, SVG Export Plug-In . SVG Version: 6.00 Build 0)  -->
<!DOCTYPE svg PUBLIC "-//W3C//DTD SVG 1.1//EN" "http://www.w3.org/Graphics/SVG/1.1/DTD/svg11.dtd">
<svg version="1.1" id="Layer_1" xmlns="http://www.w3.org/2000/svg" xmlns:xlink="http://www.w3.org/1999/xlink" x="0px" y="0px"
	 width="323.5px" height="183px" viewBox="0 0 323.5 183" enable-background="new 0 0 323.5 183" xml:space="preserve">
<g>
	<g>
		<path stroke="#FFFFFF" stroke-width="1.1962" stroke-miterlimit="10" d="M9.571,46.349V35.192h8.773v-8.011l13.063-7.533v15.544
			h10.49v11.157h-10.49v25.365h10.49v11.158H29.406l-11.062-6.389V46.349H9.571z"/>
		<path stroke="#FFFFFF" stroke-width="1.1962" stroke-miterlimit="10" d="M64.98,82.872H51.917V13.259H64.98v25.365l6.771-3.909
			h12.492l11.061,6.389v41.768H82.24v-37H64.98V82.872z"/>
		<path stroke="#FFFFFF" stroke-width="1.1962" stroke-miterlimit="10" d="M178.914,41.104v41.768H165.85v-37h-16.307v37h-13.064
			V34.715h10.775l2.289,3.909l6.771-3.909h11.538L178.914,41.104z"/>
		<path stroke="#FFFFFF" stroke-width="1.1962" stroke-miterlimit="10" d="M201.989,13.398v41.098h0.19l14.781-19.166h14.971
			l-17.068,21.266l19.93,26.414h-15.162l-12.396-16.878l-5.245,6.579v10.3h-13.063V13.398H201.989z"/>
		<path fill="#0F0FDB" stroke="#FFFFFF" stroke-width="1.1962" stroke-miterlimit="10" d="M240.762,46.349V35.192h8.773v-8.011
			l13.064-7.533v15.544h10.489v11.157H262.6v25.365h10.489v11.158h-12.492l-11.062-6.389V46.349H240.762z"/>
		
			<rect x="181.846" y="54.992" fill="#FFFFFF" stroke="#FFFFFF" stroke-width="1.1962" stroke-miterlimit="10" width="52.115" height="44.368"/>
		<path fill="#0F0FDB" stroke="#FFFFFF" stroke-width="1.1962" stroke-miterlimit="10" d="M105.299,36.286V23.222h14.018v13.064
			H105.299z"/>
		<line fill="none" stroke="#000000" stroke-miterlimit="10" x1="235.5" y1="34" x2="235.5" y2="159"/>
		<polyline fill="none" stroke="#000000" stroke-width="4" stroke-miterlimit="10" points="128,2 202.894,2 237.037,36.092 		"/>
		<g>
			<g>
				<line fill="none" stroke="#0F0FDB" stroke-miterlimit="10" x1="32" y1="96.5" x2="38" y2="96.5"/>
				<line fill="none" stroke="#0F0FDB" stroke-miterlimit="10" stroke-dasharray="12,7" x1="45" y1="96.5" x2="119" y2="96.5"/>
				<polyline fill="none" stroke="#0F0FDB" stroke-miterlimit="10" points="122,96.5 128.5,96.5 128.5,90 				"/>
				<line fill="none" stroke="#0F0FDB" stroke-miterlimit="10" stroke-dasharray="11,7" x1="128.5" y1="83" x2="128.5" y2="16"/>
				<line fill="none" stroke="#0F0FDB" stroke-miterlimit="10" x1="128.5" y1="13" x2="128.5" y2="7"/>
			</g>
		</g>
		
			<line fill="none" stroke="#0F0FDB" stroke-width="3.5887" stroke-miterlimit="10" x1="1.188" y1="110.82" x2="29.264" y2="95.771"/>
	</g>
	<rect x="241.09" y="96.344" fill="none" width="105.137" height="93.939"/>
	<text transform="matrix(1 0 0 1 241.0898 104.8096)"><tspan x="0" y="0" font-family="'LiberationMono'" font-size="11.6764" letter-spacing="1">a </tspan><tspan x="0" y="18.682" font-family="'LiberationMono'" font-size="11.6764" letter-spacing="1">creative </tspan><tspan x="0" y="37.364" font-family="'LiberationMono'" font-size="11.6764" letter-spacing="1">audio </tspan><tspan x="0" y="56.046" font-family="'LiberationMono'" font-size="11.6764" letter-spacing="1">production </tspan><tspan x="0" y="74.729" font-family="'LiberationMono'" font-size="11.6764" letter-spacing="1">facility</tspan></text>
</g>
</svg>
