<?xml version="1.0" encoding="utf-8"?>
<!-- Generator: Adobe Illustrator 16.0.0, SVG Export Plug-In . SVG Version: 6.00 Build 0)  -->
<!DOCTYPE svg PUBLIC "-//W3C//DTD SVG 1.1//EN" "http://www.w3.org/Graphics/SVG/1.1/DTD/svg11.dtd">
<svg version="1.1" id="Layer_1" xmlns="http://www.w3.org/2000/svg" xmlns:xlink="http://www.w3.org/1999/xlink" x="0px" y="0px"
	 width="249.35px" height="65.82px" viewBox="0 0 249.35 65.82" enable-background="new 0 0 249.35 65.82" xml:space="preserve">
<g>
	<path stroke="#FFFFFF" stroke-width="1.1319" stroke-miterlimit="10" d="M0,31.262V20.704h8.301v-7.579l12.362-7.129v14.708h9.926
		v10.558h-9.926v24.001h9.926V65.82H18.768L8.301,59.775V31.262H0z"/>
	<path stroke="#FFFFFF" stroke-width="1.1319" stroke-miterlimit="10" d="M52.431,65.82H40.069V-0.049h12.362v24.001l6.407-3.7
		h11.82l10.467,6.045V65.82H68.763V30.81H52.431V65.82z"/>
	<path stroke="#FFFFFF" stroke-width="1.1319" stroke-miterlimit="10" d="M160.238,26.298V65.82h-12.362V30.81h-15.43V65.82h-12.361
		V20.252h10.195l2.166,3.7l6.407-3.7h10.918L160.238,26.298z"/>
	<path stroke="#FFFFFF" stroke-width="1.1319" stroke-miterlimit="10" d="M182.073,0.083v38.889h0.181l13.986-18.136h14.167
		l-16.152,20.122l18.859,24.994h-14.347L187.036,49.98l-4.962,6.226v9.746h-12.362V0.083H182.073z"/>
	<path fill="#0F0FDB" stroke="#FFFFFF" stroke-width="1.1319" stroke-miterlimit="10" d="M218.761,31.262V20.704h8.301v-7.579
		l12.362-7.129v14.708h9.926v10.558h-9.926v24.001h9.926V65.82h-11.821l-10.467-6.045V31.262H218.761z"/>
	
		<rect x="163.013" y="39.44" fill="#FFFFFF" stroke="#FFFFFF" stroke-width="1.1319" stroke-miterlimit="10" width="49.312" height="41.982"/>
	<path fill="#0F0FDB" stroke="#FFFFFF" stroke-width="1.1319" stroke-miterlimit="10" d="M90.581,21.74V9.377h13.265V21.74H90.581z"
		/>
</g>
</svg>
