<?xml version="1.0" encoding="utf-8"?>
<!-- Generator: Adobe Illustrator 16.0.0, SVG Export Plug-In . SVG Version: 6.00 Build 0)  -->
<!DOCTYPE svg PUBLIC "-//W3C//DTD SVG 1.1//EN" "http://www.w3.org/Graphics/SVG/1.1/DTD/svg11.dtd">
<svg version="1.1" id="Layer_1" xmlns="http://www.w3.org/2000/svg" xmlns:xlink="http://www.w3.org/1999/xlink" x="0px" y="0px"
	 width="301.334px" height="174.999px" viewBox="0 0 301.334 174.999" enable-background="new 0 0 301.334 174.999"
	 xml:space="preserve">
<g>
	<path stroke="#FFFFFF" stroke-width="1.3233" stroke-miterlimit="10" d="M10.674,50.743V38.4h9.705v-8.862l14.452-8.333V38.4
		h11.604v12.343H34.831v28.06h11.604v12.343h-13.82l-12.237-7.068V50.743H10.674z"/>
	<path stroke="#FFFFFF" stroke-width="1.3233" stroke-miterlimit="10" d="M71.97,91.146H57.519V14.137H71.97v28.06l7.491-4.325
		H93.28l12.237,7.067v46.206H91.064V50.215H71.97V91.146z"/>
	<path stroke="#FFFFFF" stroke-width="1.3233" stroke-miterlimit="10" d="M198.008,44.94v46.206h-14.452V50.215h-18.039v40.931
		h-14.452V37.873h11.92l2.532,4.325l7.49-4.325h12.765L198.008,44.94z"/>
	<path stroke="#FFFFFF" stroke-width="1.3233" stroke-miterlimit="10" d="M223.536,14.291v45.465h0.211l16.351-21.202h16.562
		l-18.883,23.524L259.825,91.3h-16.772l-13.714-18.672l-5.802,7.277V91.3h-14.452V14.291H223.536z"/>
	<path fill="#0F0FDB" stroke="#FFFFFF" stroke-width="1.3233" stroke-miterlimit="10" d="M266.429,50.743V38.4h9.705v-8.862
		l14.45-8.333V38.4h11.605v12.343h-11.605v28.06h11.605v12.343h-13.818l-12.237-7.068V50.743H266.429z"/>
	
		<rect x="201.252" y="60.304" fill="#FFFFFF" stroke="#FFFFFF" stroke-width="1.3233" stroke-miterlimit="10" width="57.652" height="49.083"/>
	<path fill="#0F0FDB" stroke="#FFFFFF" stroke-width="1.3233" stroke-miterlimit="10" d="M116.572,39.611V25.158h15.508v14.453
		H116.572z"/>
	<line fill="none" stroke="#000000" stroke-width="2" stroke-miterlimit="10" x1="259" y1="37" x2="259" y2="175"/>
	<polyline fill="none" stroke="#000000" stroke-width="4" stroke-miterlimit="10" points="142,2 224.536,2 262.464,39.715 	"/>
	<g>
		<g>
			<line fill="none" stroke="#0F0FDB" stroke-miterlimit="10" x1="36" y1="105.5" x2="42" y2="105.5"/>
			<line fill="none" stroke="#0F0FDB" stroke-miterlimit="10" stroke-dasharray="13,8" x1="50" y1="105.5" x2="131" y2="105.5"/>
			<polyline fill="none" stroke="#0F0FDB" stroke-miterlimit="10" points="135,105.5 142.5,105.5 142.5,99 			"/>
			<line fill="none" stroke="#0F0FDB" stroke-miterlimit="10" stroke-dasharray="12,7" x1="142.5" y1="92" x2="142.5" y2="17"/>
			<line fill="none" stroke="#0F0FDB" stroke-miterlimit="10" x1="142.5" y1="14" x2="142.5" y2="7"/>
		</g>
	</g>
	<line fill="none" stroke="#0F0FDB" stroke-width="3.97" stroke-miterlimit="10" x1="1.4" y1="122.064" x2="32.458" y2="105.417"/>
</g>
</svg>
