<?xml version="1.0" encoding="utf-8"?>
<!-- Generator: Adobe Illustrator 16.0.0, SVG Export Plug-In . SVG Version: 6.00 Build 0)  -->
<!DOCTYPE svg PUBLIC "-//W3C//DTD SVG 1.1//EN" "http://www.w3.org/Graphics/SVG/1.1/DTD/svg11.dtd">
<svg version="1.1" id="Layer_1" xmlns="http://www.w3.org/2000/svg" xmlns:xlink="http://www.w3.org/1999/xlink" x="0px" y="0px"
	 width="349px" height="223.302px" viewBox="0 0 349 223.302" enable-background="new 0 0 349 223.302" xml:space="preserve">
<polyline fill="none" stroke="#000000" stroke-miterlimit="10" points="329,10.5 348.5,10.5 348.5,29 "/>
<path d="M0.439,223.408v-11.43h12.181v11.43H0.439z"/>
<line fill="none" stroke="#000000" stroke-miterlimit="10" x1="348.5" y1="223" x2="348.5" y2="165"/>
<path d="M0.02,11.662V0.232h107.544v11.429H0.02z"/>
<path stroke="#FFFFFF" stroke-width="1.1574" stroke-miterlimit="10" d="M47.579,103.234V92.438h8.489v-7.751l12.64-7.289v15.04
	h10.149v10.795H68.708v24.542h10.149v10.795H66.77l-10.703-6.182v-29.156H47.579z"/>
<path stroke="#FFFFFF" stroke-width="1.1574" stroke-miterlimit="10" d="M101.191,138.571h-12.64V71.217h12.64v24.542l6.551-3.782
	h12.087l10.702,6.181v40.414h-12.64v-35.799h-16.7V138.571z"/>
<path stroke="#FFFFFF" stroke-width="1.1574" stroke-miterlimit="10" d="M211.428,98.157v40.414h-12.641v-35.799h-15.778v35.799
	H170.37V91.977h10.425l2.214,3.782l6.551-3.782h11.165L211.428,98.157z"/>
<path stroke="#FFFFFF" stroke-width="1.1574" stroke-miterlimit="10" d="M233.755,71.352v39.766h0.185l14.301-18.544h14.486
	l-16.516,20.576l19.284,25.558h-14.67l-11.995-16.331l-5.075,6.365v9.966h-12.64V71.352H233.755z"/>
<rect x="214.266" y="111.596" fill="#FFFFFF" stroke="#FFFFFF" stroke-width="1.1574" stroke-miterlimit="10" width="50.424" height="42.929"/>
<path stroke="#FFFFFF" stroke-width="1.1574" stroke-miterlimit="10" d="M140.201,93.497V80.856h13.563v12.641H140.201z"/>
<line fill="none" stroke="#000000" stroke-miterlimit="10" x1="266.5" y1="91" x2="266.5" y2="214"/>
<polyline fill="none" stroke="#000000" stroke-width="4" stroke-miterlimit="10" points="162,61 234.63,61 267.583,93.986 "/>
<g>
	<g>
		<line fill="none" stroke="#000000" stroke-miterlimit="10" x1="69" y1="151.5" x2="75" y2="151.5"/>
		<line fill="none" stroke="#000000" stroke-miterlimit="10" stroke-dasharray="12,7" x1="82" y1="151.5" x2="153" y2="151.5"/>
		<polyline fill="none" stroke="#000000" stroke-miterlimit="10" points="157,151.5 162.5,151.5 162.5,146 		"/>
		<line fill="none" stroke="#000000" stroke-miterlimit="10" stroke-dasharray="11,6" x1="162.5" y1="139" x2="162.5" y2="74"/>
		<line fill="none" stroke="#000000" stroke-miterlimit="10" x1="162.5" y1="71" x2="162.5" y2="65"/>
	</g>
</g>
<line fill="none" stroke="#000000" stroke-width="3.4723" stroke-miterlimit="10" x1="39.468" y1="165.613" x2="66.632" y2="151.053"/>
<path d="M126.968,223.302v-11.43H349v11.43H126.968z"/>
<path stroke="#FFFFFF" stroke-width="1.1574" stroke-miterlimit="10" d="M271.27,103.234V92.438h8.489v-7.751l12.64-7.289v15.04
	h10.149v10.795h-10.149v24.542h10.149v10.795h-12.087l-10.703-6.182v-29.156H271.27z"/>
<line fill="none" stroke="#0F0FDB" stroke-miterlimit="10" stroke-dasharray="10,6" x1="273.5" y1="12" x2="273.5" y2="59"/>
<line fill="none" stroke="#0F0FDB" stroke-miterlimit="10" stroke-dasharray="10,6" x1="348" y1="165.5" x2="305" y2="165.5"/>
<line fill="none" stroke="#0F0FDB" stroke-miterlimit="10" stroke-dasharray="10,6" x1="50" y1="59.5" x2="1" y2="59.5"/>
<line fill="none" stroke="#0F0FDB" stroke-miterlimit="10" x1="304.5" y1="139" x2="304.5" y2="165"/>
<line fill="none" stroke="#0F0FDB" stroke-miterlimit="10" x1="271" y1="59.5" x2="237" y2="59.5"/>
<line fill="none" stroke="#0F0FDB" stroke-miterlimit="10" x1="49.5" y1="59" x2="49.5" y2="93"/>
</svg>
