<?xml version="1.0" encoding="utf-8"?>
<!-- Generator: Adobe Illustrator 16.0.0, SVG Export Plug-In . SVG Version: 6.00 Build 0)  -->
<!DOCTYPE svg PUBLIC "-//W3C//DTD SVG 1.1//EN" "http://www.w3.org/Graphics/SVG/1.1/DTD/svg11.dtd">
<svg version="1.1" id="Layer_1" xmlns="http://www.w3.org/2000/svg" xmlns:xlink="http://www.w3.org/1999/xlink" x="0px" y="0px"
	 width="249.35px" height="160px" viewBox="0 0 249.35 160" enable-background="new 0 0 249.35 160" xml:space="preserve">
<g>
	<path stroke="#FFFFFF" stroke-width="1.1319" stroke-miterlimit="10" d="M0,31.311V20.753h8.301v-7.579l12.362-7.129v14.708h9.925
		v10.558h-9.925v24.002h9.925v10.557H18.769L8.301,59.824V31.311H0z"/>
	<path stroke="#FFFFFF" stroke-width="1.1319" stroke-miterlimit="10" d="M52.431,65.869H40.068V0h12.362v24.001l6.406-3.699h11.821
		l10.466,6.046v39.521H68.763V30.86H52.431V65.869z"/>
	<path stroke="#FFFFFF" stroke-width="1.1319" stroke-miterlimit="10" d="M160.237,26.348v39.521h-12.361V30.86h-15.431v35.009
		h-12.361V20.302h10.196l2.165,3.699l6.407-3.699h10.918L160.237,26.348z"/>
	<path stroke="#FFFFFF" stroke-width="1.1319" stroke-miterlimit="10" d="M182.073,0.132v38.889h0.18l13.986-18.136h14.167
		l-16.152,20.122l18.859,24.994h-14.347l-11.73-15.971l-4.963,6.225v9.746h-12.361V0.132H182.073z"/>
	<path fill="#0F0FDB" stroke="#FFFFFF" stroke-width="1.1319" stroke-miterlimit="10" d="M218.761,31.311V20.753h8.301v-7.579
		l12.362-7.129v14.708h9.926v10.558h-9.926v24.002h9.926v10.557h-11.821l-10.467-6.045V31.311H218.761z"/>
	
		<rect x="163.013" y="39.489" fill="#FFFFFF" stroke="#FFFFFF" stroke-width="1.1319" stroke-miterlimit="10" width="49.312" height="34.06"/>
	<path fill="#0F0FDB" stroke="#FFFFFF" stroke-width="1.1319" stroke-miterlimit="10" d="M90.58,21.789V9.427h13.265v12.362H90.58z"
		/>
	<rect x="84.471" y="75.325" fill="none" width="110.928" height="100.52"/>
	<text transform="matrix(1 0 0 1 188.604 83.5312)"><tspan x="0" y="0" font-family="'LiberationMono'" font-size="11.3191" letter-spacing="1">a </tspan><tspan x="-55.788" y="18.11" font-family="'LiberationMono'" font-size="11.3191" letter-spacing="1">creative </tspan><tspan x="-31.879" y="36.222" font-family="'LiberationMono'" font-size="11.3191" letter-spacing="1">audio </tspan><tspan x="-71.728" y="54.332" font-family="'LiberationMono'" font-size="11.3191" letter-spacing="1">production </tspan><tspan x="-55.788" y="72.442" font-family="'LiberationMono'" font-size="11.3191" letter-spacing="1">facility</tspan></text>
</g>
</svg>
