<?xml version="1.0" encoding="utf-8"?>
<!-- Generator: Adobe Illustrator 18.1.1, SVG Export Plug-In . SVG Version: 6.00 Build 0)  -->
<svg version="1.1" id="Layer_1" xmlns="http://www.w3.org/2000/svg" xmlns:xlink="http://www.w3.org/1999/xlink" x="0px" y="0px"
	 viewBox="-237 209 323.5 183" enable-background="new -237 209 323.5 183" xml:space="preserve">
<path stroke="#FFFFFF" stroke-width="1.1962" stroke-miterlimit="10" d="M-227.4,255.3v-11.2h8.8v-8l13.1-7.5v15.5h10.5v11.2h-10.5
	v25.4h10.5v11.2h-12.5l-11.1-6.4v-30.1H-227.4z"/>
<path stroke="#FFFFFF" stroke-width="1.1962" stroke-miterlimit="10" d="M-172,291.9h-13.1v-69.6h13.1v25.4l6.8-3.9h12.5l11.1,6.4
	v41.8h-13.1v-37H-172V291.9z"/>
<path stroke="#FFFFFF" stroke-width="1.1962" stroke-miterlimit="10" d="M-58.1,250.1v41.8h-13.1v-37h-16.3v37h-13.1v-48.2h10.8
	l2.3,3.9l6.8-3.9h11.5L-58.1,250.1z"/>
<path stroke="#FFFFFF" stroke-width="1.1962" stroke-miterlimit="10" d="M-35,222.4v41.1h0.2l14.8-19.2h15l-17.1,21.3L-2.2,292
	h-15.2l-12.4-16.9l-5.2,6.6V292h-13.1v-69.6H-35z"/>
<path stroke="#FFFFFF" stroke-width="1.1962" stroke-miterlimit="10" d="M3.8,255.3v-11.2h8.8v-8l13.1-7.5v15.5h10.5v11.2H25.6v25.4
	h10.5v11.2H23.6l-11.1-6.4v-30.1H3.8z"/>
<rect x="-55.2" y="264" fill="#FFFFFF" stroke="#FFFFFF" stroke-width="1.1962" stroke-miterlimit="10" width="52.1" height="44.4"/>
<path stroke="#FFFFFF" stroke-width="1.1962" stroke-miterlimit="10" d="M-131.7,245.3v-13.1h14v13.1H-131.7z"/>
<line fill="none" stroke="#000000" stroke-miterlimit="10" x1="-1.5" y1="243" x2="-1.5" y2="368"/>
<polyline fill="none" stroke="#000000" stroke-width="4" stroke-miterlimit="10" points="-109,211 -34.1,211 0,245.1 "/>
<g>
	<g>
		<line fill="none" stroke="#000000" stroke-miterlimit="10" x1="-205" y1="305.5" x2="-199" y2="305.5"/>
		<line fill="none" stroke="#000000" stroke-miterlimit="10" stroke-dasharray="12,7" x1="-192" y1="305.5" x2="-118" y2="305.5"/>
		<polyline fill="none" stroke="#000000" stroke-miterlimit="10" points="-115,305.5 -108.5,305.5 -108.5,299 		"/>
		<line fill="none" stroke="#000000" stroke-miterlimit="10" stroke-dasharray="11,7" x1="-108.5" y1="292" x2="-108.5" y2="225"/>
		<line fill="none" stroke="#000000" stroke-miterlimit="10" x1="-108.5" y1="222" x2="-108.5" y2="216"/>
	</g>
</g>
<line fill="none" stroke="#000000" stroke-width="3.5887" stroke-miterlimit="10" x1="-235.8" y1="319.8" x2="-207.7" y2="304.8"/>
<rect x="4.1" y="305.3" fill="none" width="105.1" height="93.9"/>
</svg>
