<?xml version="1.0" encoding="utf-8"?>
<!-- Generator: Adobe Illustrator 16.0.0, SVG Export Plug-In . SVG Version: 6.00 Build 0)  -->
<!DOCTYPE svg PUBLIC "-//W3C//DTD SVG 1.1//EN" "http://www.w3.org/Graphics/SVG/1.1/DTD/svg11.dtd">
<svg version="1.1" id="Layer_1" xmlns="http://www.w3.org/2000/svg" xmlns:xlink="http://www.w3.org/1999/xlink" x="0px" y="0px"
	 width="249.35px" height="65.82px" viewBox="0 0 249.35 65.82" enable-background="new 0 0 249.35 65.82" xml:space="preserve">
<g>
	<path stroke="#FFFFFF" stroke-width="1.1319" stroke-miterlimit="10" d="M0,31.312V20.754h8.301v-7.58l12.361-7.128v14.708h9.926
		v10.558h-9.926v24.001h9.926V65.87H18.768L8.301,59.825V31.312H0z"/>
	<path stroke="#FFFFFF" stroke-width="1.1319" stroke-miterlimit="10" d="M52.431,65.87H40.069V0h12.362v24.002l6.407-3.699h11.82
		l10.467,6.045V65.87H68.763V30.86H52.431V65.87z"/>
	<path stroke="#FFFFFF" stroke-width="1.1319" stroke-miterlimit="10" d="M160.237,26.348V65.87h-12.362V30.86h-15.43v35.01h-12.361
		V20.303h10.196l2.166,3.699l6.407-3.699h10.918L160.237,26.348z"/>
	<path stroke="#FFFFFF" stroke-width="1.1319" stroke-miterlimit="10" d="M182.072,0.132v38.89h0.181l13.986-18.136h14.167
		l-16.152,20.122l18.859,24.994h-14.347l-11.731-15.971l-4.963,6.225v9.746h-12.361V0.132H182.072z"/>
	<path stroke="#FFFFFF" stroke-width="1.1319" stroke-miterlimit="10" d="M218.761,31.312V20.754h8.301v-7.58l12.361-7.128v14.708
		h9.927v10.558h-9.927v24.001h9.927V65.87h-11.821l-10.467-6.045V31.312H218.761z"/>
	
		<rect x="163.012" y="39.49" fill="#FFFFFF" stroke="#FFFFFF" stroke-width="1.1319" stroke-miterlimit="10" width="49.313" height="41.982"/>
	<path stroke="#FFFFFF" stroke-width="1.1319" stroke-miterlimit="10" d="M90.581,21.79V9.428h13.265V21.79H90.581z"/>
</g>
</svg>
